<svg xmlns="http://www.w3.org/2000/svg" xmlns:xlink="http://www.w3.org/1999/xlink" viewBox="0 0 91.167 108.167" fill="#fff" fill-rule="evenodd" stroke="#000" stroke-linecap="round" stroke-linejoin="round"><use xlink:href="#A" x="2.083" y="2.083"/><symbol id="A" overflow="visible"><g fill-rule="nonzero"><g stroke-width="4.167"><path d="M86.917 60.083c0 22.771-17.625 41.417-40 43.042 32.188-18.792 36.042-51.542 9.625-82.333l-.292-.375C49.438 12.542 59.25 0 59.25 0h4.167a6.78 6.78 0 0 1 6.75 6.75v.042c0 1.542-.542 2.979-1.458 4.125-.687.917-1.625 1.625-2.708 2.083-2.458 2.417-4.583 6.521 1.667 11.146.063.042.167.125.208.167.208.146.5.313.729.5a42.44 42.44 0 0 1 8.229 7.583C79.021 35 80.938 37.875 82.459 41c.083.125.146.271.208.417.313.688.625 1.354.875 2.042l.625 1.667c.208.583.417 1.146.563 1.667 0 .021.021.042.021.063l.458 1.583c.021.083.063.208.083.271.063.25.125.458.167.708.104.313.208.625.25.979s.146.625.208.958c.063.25.125.542.208.833 0 .021 0 .083.021.104L86.438 54l.271 2.083.104 1.208c.125 1.75.104 2.792.104 2.792z" fill="#6a462f" stroke="#6a462f"/><path d="M46.937 103.125a8.98 8.98 0 0 1-1.042.063l-2.146.063C19.916 103.25.583 83.917.583 60.084v-.271c0-.577.021-1.154.063-1.729 0-.25.021-.5.042-.792.021-.354.063-.771.104-1.208.07-.599.153-1.196.25-1.792l.146-1a55.63 55.63 0 0 1 1.667-6.854 23.34 23.34 0 0 1 .438-1.271 48.53 48.53 0 0 1 1.521-3.729 2.57 2.57 0 0 1 .208-.417c1.396-2.979 5.625-8.604 5.625-8.604 2.396-2.88 5.163-5.43 8.229-7.583.208-.208.5-.354.729-.5.063-.042.167-.125.208-.167 6.146-4.583 4.167-8.625 1.771-11.042-1.25-.458-2.292-1.25-3.042-2.292-.042-.021-.062-.042-.062-.042a6.62 6.62 0 0 1-1.292-3.958v-.042c0-3.708 3.021-6.75 6.75-6.75h35.292s-9.792 12.5-2.979 20.375l.313.375c26.458 30.792 22.563 63.542-9.625 82.333z" fill="#a57939" stroke="#a57939"/></g><path d="M3.096 49.209l.677-2.823-.677 2.823zm1.25-4.792l-.571 1.946.571-1.946zm-1.604 6.604l.354-1.833-.354 1.833zm-.521 4.583l-.062 1.667.063-1.667z" stroke="none" fill="#000"/></g><g stroke-width="4.167" fill="none"><path d="M56.995 17.985H30.26" stroke-linejoin="miter"/><path d="M86.916 60.087c0 23.827-19.329 43.156-43.156 43.156-23.848 0-43.177-19.329-43.177-43.156v-.281a23.96 23.96 0 0 1 .063-1.729c0-.237.021-.5.042-.779.021-.367.063-.779.108-1.208.063-.542.129-1.146.237-1.792.042-.325.108-.646.152-.994A51.91 51.91 0 0 1 2.85 46.45l.433-1.275c.454-1.208.952-2.465 1.535-3.742.063-.152.129-.302.217-.431 1.404-2.983 5.6-8.604 5.6-8.604a42.92 42.92 0 0 1 8.237-7.59c.238-.173.5-.346.735-.5.063-.042.152-.108.217-.152 6.162-4.583 4.173-8.625 1.771-11.048a6.46 6.46 0 0 1-3.027-2.315c-.042-.021-.062-.042-.062-.042-.844-1.146-1.299-2.533-1.298-3.956v-.042c.014-3.72 3.026-6.732 6.746-6.746h39.438c3.72.014 6.732 3.026 6.746 6.746v.042a6.78 6.78 0 0 1-1.427 4.129c-.7.911-1.624 1.626-2.681 2.075-2.465 2.421-4.604 6.529 1.646 11.156.063.042.152.108.217.152.25.159.495.325.736.498 3.071 2.163 5.837 4.713 8.237 7.59 2.183 2.617 4.087 5.492 5.6 8.604a2.98 2.98 0 0 1 .217.431c.313.677.609 1.362.885 2.054l.625 1.667c.217.583.39 1.146.563 1.687 0 .021.021.042.021.063l.454 1.579c.021.083.063.194.088.281.063.238.129.454.173.692a12.57 12.57 0 0 1 .237.994c.063.325.152.625.217.952.063.26.129.542.173.821 0 .021 0 .063.021.083l.302 1.708a57.72 57.72 0 0 1 .26 2.075l.108 1.208c.129 1.75.108 2.792.108 2.792z"/><path d="M50.417 52.41c-.562-2.202-3.012-3.854-5.944-3.854-3.35 0-6.067 2.162-6.067 4.833s2.717 4.833 6.067 4.833l-.125.021c3.35 0 6.067 2.163 6.067 4.833s-2.717 4.833-6.067 4.833c-2.931 0-5.379-1.656-5.944-3.854m5.987-15.5v-4.583m0 28.55V67.94M14.583 18.333s-12.5 0-12.5 12.5m2.083-16.667S0 14.167 0 10"/></g></symbol></svg>